<svg width="104" height="35" viewBox="0 0 104 35" fill="none" xmlns="http://www.w3.org/2000/svg">
<path d="M103.029 3.71499C103.976 3.14669 104.283 1.91817 103.715 0.971009C103.147 0.0238479 101.918 -0.283282 100.971 0.285014L103.029 3.71499ZM52 32L50.971 33.715L52 34.3324L53.029 33.715L52 32ZM3.02899 0.285014C2.08183 -0.283282 0.85331 0.0238479 0.285014 0.971009C-0.283282 1.91817 0.0238479 3.14669 0.971009 3.71499L3.02899 0.285014ZM100.971 0.285014L50.971 30.285L53.029 33.715L103.029 3.71499L100.971 0.285014ZM53.029 30.285L3.02899 0.285014L0.971009 3.71499L50.971 33.715L53.029 30.285Z" fill="#E94921"/>
</svg>
