<svg width="42" height="47" viewBox="0 0 42 47" fill="none" xmlns="http://www.w3.org/2000/svg">
<path d="M21 46.25L39.4994 35.5772C40.1186 35.2201 40.5 34.5596 40.5 33.8449V11M21 46.25L2.50056 35.5772C1.88144 35.2201 1.5 34.5596 1.5 33.8449V11.75M21 46.25V22.25M40.5 11L21.9286 1.71428C21.3464 1.4232 20.659 1.43361 20.0859 1.74219L1.5 11.75M40.5 11L21 22.25M1.5 11.75L21 22.25" stroke="#E94921" stroke-width="2"/>
<path d="M27 4.25L31.5 6.5L11.625 17.75L7.125 15.125L27 4.25Z" fill="#E94921"/>
<path d="M12 17.75V22.625C12 21.125 11.25 22.625 10.125 22.25C9 21.875 9.375 21.125 8.625 20.75C7.875 20.375 7.5 21.875 7.5 20.75V15.5L12 17.75Z" fill="#E94921"/>
<path d="M38.0039 17.4888C38.4809 17.2105 38.6421 16.5982 38.3638 16.1211C38.0855 15.6441 37.4732 15.4829 36.9961 15.7612L38.0039 17.4888ZM23.4961 23.6362C23.0191 23.9145 22.8579 24.5268 23.1362 25.0039C23.4145 25.4809 24.0268 25.6421 24.5039 25.3638L23.4961 23.6362ZM36.9961 15.7612L23.4961 23.6362L24.5039 25.3638L38.0039 17.4888L36.9961 15.7612Z" fill="#E94921"/>
<path d="M38.0039 20.8638C38.4809 20.5855 38.6421 19.9732 38.3638 19.4961C38.0855 19.0191 37.4732 18.8579 36.9961 19.1362L38.0039 20.8638ZM23.4961 27.0112C23.0191 27.2895 22.8579 27.9018 23.1362 28.3789C23.4145 28.8559 24.0268 29.0171 24.5039 28.7388L23.4961 27.0112ZM36.9961 19.1362L23.4961 27.0112L24.5039 28.7388L38.0039 20.8638L36.9961 19.1362Z" fill="#E94921"/>
<path d="M38.0039 24.6138C38.4809 24.3355 38.6421 23.7232 38.3638 23.2461C38.0855 22.7691 37.4732 22.6079 36.9961 22.8862L38.0039 24.6138ZM23.4961 30.7612C23.0191 31.0395 22.8579 31.6518 23.1362 32.1289C23.4145 32.6059 24.0268 32.7671 24.5039 32.4888L23.4961 30.7612ZM36.9961 22.8862L23.4961 30.7612L24.5039 32.4888L38.0039 24.6138L36.9961 22.8862Z" fill="#E94921"/>
<path d="M38.0039 28.3638C38.4809 28.0855 38.6421 27.4732 38.3638 26.9961C38.0855 26.5191 37.4732 26.3579 36.9961 26.6362L38.0039 28.3638ZM23.4961 34.5112C23.0191 34.7895 22.8579 35.4018 23.1362 35.8789C23.4145 36.3559 24.0268 36.5171 24.5039 36.2388L23.4961 34.5112ZM36.9961 26.6362L23.4961 34.5112L24.5039 36.2388L38.0039 28.3638L36.9961 26.6362Z" fill="#E94921"/>
</svg>
