<svg width="56" height="56" viewBox="0 0 56 56" fill="none" xmlns="http://www.w3.org/2000/svg">
<path d="M36.1901 15.9862V21.875C36.1889 23.1503 35.781 24.392 35.0257 25.4196C34.2703 26.4472 33.2069 27.2071 31.9901 27.5887C31.4077 27.7765 30.7994 27.871 30.1876 27.8687H26.2938C25.6002 27.8728 24.9119 27.7482 24.2638 27.5012C23.1031 27.0875 22.0989 26.3245 21.3891 25.3171C20.6794 24.3097 20.299 23.1073 20.3001 21.875V15.9862H36.1901Z" stroke="#252E79" stroke-width="2" stroke-linecap="round" stroke-linejoin="round"/>
<path d="M36.8199 12.1625V15.9863H19.6611V12.1625H25.6111L26.1449 13.825H30.1874L30.7299 12.1625H36.8199Z" stroke="#252E79" stroke-width="2" stroke-linecap="round" stroke-linejoin="round"/>
<path d="M32.1212 20.8687H24.3599C23.7045 20.8689 23.0651 20.6664 22.5293 20.2889C21.9935 19.9113 21.5877 19.3773 21.3674 18.76L20.3787 15.9862H36.1287L35.1399 18.76C34.9181 19.3815 34.5083 19.9186 33.9673 20.2965C33.4263 20.6744 32.781 20.8744 32.1212 20.8687V20.8687Z" stroke="#252E79" stroke-width="2" stroke-linecap="round" stroke-linejoin="round"/>
<path d="M38.9638 10.6575L36.82 12.1625H30.695L31.4038 9.99251L28.1663 7.62126L24.9025 9.99251L25.6025 12.1625H19.6613L17.5 10.6575C17.3331 10.5401 17.2033 10.3773 17.1261 10.1884C17.0488 9.9995 17.0273 9.79241 17.0642 9.59167C17.101 9.39094 17.1946 9.20496 17.3339 9.05579C17.4732 8.90662 17.6523 8.8005 17.85 8.75001H17.9813C18.9923 8.27275 19.8588 7.53608 20.4925 6.61501L21.6913 4.86501L23.135 5.04876C23.9312 5.13721 24.7371 5.06006 25.502 4.82214C26.267 4.58423 26.9745 4.19069 27.58 3.66626L28.245 3.10626L28.9013 3.66626C29.5082 4.19138 30.2171 4.58528 30.9836 4.8232C31.7501 5.06112 32.5575 5.13792 33.355 5.04876L34.7988 4.86501L35.9888 6.61501C36.6247 7.53412 37.4906 8.2703 38.5 8.75001H38.6313C38.8278 8.80277 39.0051 8.9106 39.1424 9.06078C39.2797 9.21096 39.3712 9.39724 39.4061 9.59768C39.441 9.79812 39.418 10.0044 39.3396 10.1921C39.2612 10.3799 39.1309 10.5414 38.9638 10.6575V10.6575Z" stroke="#252E79" stroke-width="2" stroke-linecap="round" stroke-linejoin="round"/>
<path d="M36.1812 17.0363H37.6774C37.8693 17.0363 38.0593 17.0741 38.2366 17.1475C38.4139 17.2209 38.575 17.3286 38.7107 17.4642C38.8464 17.5999 38.954 17.761 39.0274 17.9383C39.1009 18.1156 39.1387 18.3056 39.1387 18.4975V19.3725C39.1387 19.7601 38.9847 20.1317 38.7107 20.4058C38.4366 20.6798 38.065 20.8338 37.6774 20.8338H36.1812V17.0363Z" stroke="#252E79" stroke-width="2" stroke-linecap="round" stroke-linejoin="round"/>
<path d="M20.3 20.8687H18.8038C18.6119 20.8687 18.4219 20.8309 18.2446 20.7575C18.0673 20.6841 17.9062 20.5764 17.7705 20.4408C17.6348 20.3051 17.5272 20.144 17.4538 19.9667C17.3803 19.7894 17.3425 19.5994 17.3425 19.4075V18.5325C17.3425 18.1449 17.4965 17.7733 17.7705 17.4992C18.0446 17.2252 18.4162 17.0712 18.8038 17.0712H20.3V20.8687Z" stroke="#252E79" stroke-width="2" stroke-linecap="round" stroke-linejoin="round"/>
<path d="M17 29.1776V31.1309H15.0131C13.1774 31.1336 11.4018 31.7957 10 33V29.1776C9.99881 29.0226 10.028 28.8689 10.0858 28.7255C10.1436 28.5821 10.2289 28.4518 10.3368 28.3422C10.4446 28.2326 10.5729 28.1459 10.7141 28.0871C10.8552 28.0284 11.0065 27.9988 11.159 28H15.8502C16.0019 28 16.1522 28.0306 16.2923 28.0898C16.4324 28.1491 16.5596 28.236 16.6665 28.3455C16.7734 28.455 16.8579 28.5849 16.9151 28.7277C16.9723 28.8705 17.0012 29.0234 17 29.1776Z" fill="white" stroke="#252E79" stroke-width="2" stroke-linecap="round" stroke-linejoin="round"/>
<path d="M46 29.1372V33C44.5636 31.7216 42.6928 31.0167 40.7546 31.0235H39V29.1372C39 28.8371 39.1207 28.5493 39.3358 28.3362C39.5509 28.1232 39.8429 28.0024 40.1483 28H44.8425C45.1495 28 45.4439 28.1198 45.661 28.3331C45.8781 28.5463 46 28.8356 46 29.1372Z" fill="white" stroke="#252E79" stroke-width="2" stroke-linecap="round" stroke-linejoin="round"/>
<path d="M32.2175 31.4913H31.7625L31.99 31.2638L32.2175 31.4913Z" stroke="#252E79" stroke-width="2" stroke-linecap="round" stroke-linejoin="round"/>
<path d="M24.4911 31.4913H24.0361L24.2636 31.2638L24.4911 31.4913Z" stroke="#252E79" stroke-width="2" stroke-linecap="round" stroke-linejoin="round"/>
<path d="M48 38.6375V50H8.00001V38.6375C7.99867 37.6327 8.21854 36.6375 8.64697 35.7092C9.0754 34.7808 9.70397 33.9376 10.4966 33.2279C11.2891 32.5183 12.2301 31.9561 13.2655 31.5738C14.3008 31.1915 15.4102 30.9965 16.5297 31H23.2971L21.2024 32.88L23.5589 35.5915L24.6465 36.8569L25.2105 36.4954L28.0101 34.7419L30.8097 36.4954L31.3736 36.8569L32.4511 35.6006L34.8177 32.8891L32.713 31H39.4904C40.6087 30.9977 41.7164 31.1936 42.75 31.5766C43.7837 31.9595 44.7228 32.522 45.5135 33.2317C46.3042 33.9414 46.9309 34.7842 47.3576 35.7119C47.7843 36.6396 48.0026 37.6338 48 38.6375Z" stroke="#252E79" stroke-width="2" stroke-linecap="round" stroke-linejoin="round"/>
<path d="M35 32.24L32.5666 35.5031L31.4586 37L30.8787 36.5692L28 34.48L30.4438 31.9385L32.2973 30H32.8358L35 32.24Z" stroke="#252E79" stroke-width="2" stroke-linecap="round" stroke-linejoin="round"/>
<path d="M28 34.48L25.1317 36.5692L24.5311 37L23.4231 35.4923L21 32.24L23.1538 30H23.6923L25.5562 31.9385L28 34.48Z" stroke="#252E79" stroke-width="2" stroke-linecap="round" stroke-linejoin="round"/>
<path d="M31.99 27.545V31.5H31.7625L30.1962 33.075L28.1312 35.14L26.0662 33.075L24.5 31.5H24.2725V27.4575C24.9206 27.7045 25.6089 27.8291 26.3025 27.825H30.1875C30.7993 27.8273 31.4077 27.7328 31.99 27.545V27.545Z" stroke="#252E79" stroke-width="2" stroke-linecap="round" stroke-linejoin="round"/>
<path d="M30.5638 36.8288L29.4088 37.9838L28.1313 39.2525L26.8538 37.9838L25.7075 36.8288L28.1313 35.1313L30.5638 36.8288Z" stroke="#252E79" stroke-width="2" stroke-linecap="round" stroke-linejoin="round"/>
<path d="M31 50H25L26.6518 38L27.9554 39.0199L29.2589 38L31 50Z" stroke="#252E79" stroke-width="2" stroke-linecap="round" stroke-linejoin="round"/>
<path d="M16 46V49" stroke="#252E79" stroke-width="2" stroke-linecap="round" stroke-linejoin="round"/>
<path d="M41 46V49" stroke="#252E79" stroke-width="2" stroke-linecap="round" stroke-linejoin="round"/>
<path d="M38.3187 41.1512H33.3662V43.9512H38.3187V41.1512Z" fill="white" stroke="#252E79" stroke-width="2" stroke-linecap="round" stroke-linejoin="round"/>
<path d="M22.8876 41.1512H17.9351V43.9512H22.8876V41.1512Z" fill="white" stroke="#252E79" stroke-width="2" stroke-linecap="round" stroke-linejoin="round"/>
<path d="M33.8334 9.0508L32.5823 12.3155L31.6127 14.8167H24.3875L23.4335 12.3155L22.1667 9.0508L28.0001 5.48334L33.8334 9.0508Z" fill="white"/>
<path d="M31.4298 9.9925L30.7298 12.1625L30.1873 13.825H26.1448L25.6111 12.1625L24.9023 9.9925L28.1661 7.62125L31.4298 9.9925Z" fill="#E94921"/>
</svg>
