<svg width="56" height="53" viewBox="0 0 56 53" fill="none" xmlns="http://www.w3.org/2000/svg">
<path d="M39.0679 2.35645L24.1687 16.9319L38.7441 31.8313L53.6434 17.2558L39.0679 2.35645ZM22.4862 15.3227L37.4939 0.641198C37.9376 0.207062 38.516 -0.00615235 39.0902 0.000135069C39.6717 0.00650865 40.2484 0.230919 40.6796 0.671773L40.6773 0.674056L55.3588 15.6817C55.7929 16.1254 56.0061 16.7038 55.9998 17.2781C55.9935 17.8595 55.7691 18.4362 55.3282 18.8675L55.326 18.8651L40.3183 33.5466V33.5512C39.8776 33.9823 39.299 34.194 38.7219 34.1876C38.1433 34.1813 37.5684 33.9569 37.1371 33.516L22.4535 18.5061C22.0193 18.0623 21.8061 17.484 21.8124 16.9097C21.8188 16.3283 22.0431 15.7516 22.484 15.3203L22.4863 15.3227L22.4862 15.3227Z" fill="#E94921"/>
<path d="M52.5022 27.8441C52.9603 27.3936 52.9664 26.6569 52.5159 26.1988C52.0654 25.7407 51.3287 25.7345 50.8706 26.1851L38.3841 38.4003L10.1286 9.51708L10.131 9.5148C9.8249 9.20194 9.38598 9.09793 8.99147 9.20452L0.897667 11.1338C0.270903 11.2823 -0.116809 11.9108 0.031678 12.5376C0.180165 13.1644 0.808695 13.5521 1.43546 13.4036L8.92821 11.6176L37.4727 40.7962C37.4915 40.8185 37.5113 40.8403 37.532 40.8614C37.9826 41.3221 38.7213 41.3302 39.1819 40.8796L38.366 40.0455L39.1819 40.875L52.5023 27.8441L52.5022 27.8441Z" fill="#E94921"/>
<path d="M38.6597 43.898C37.8135 43.898 37.0473 44.241 36.4929 44.7954C35.9385 45.3498 35.5955 46.116 35.5955 46.9622C35.5955 47.8085 35.9385 48.5746 36.4929 49.129C37.0473 49.6834 37.8135 50.0264 38.6597 50.0264C39.506 50.0264 40.2721 49.6835 40.8265 49.129C41.381 48.5746 41.7239 47.8085 41.7239 46.9622C41.7239 46.116 41.381 45.3498 40.8265 44.7954C40.2721 44.241 39.506 43.898 38.6597 43.898ZM34.843 43.1455C35.8199 42.1687 37.1694 41.5645 38.6597 41.5645C40.1501 41.5645 41.4996 42.1687 42.4764 43.1455C43.4533 44.1224 44.0575 45.4718 44.0575 46.9622C44.0575 48.4526 43.4533 49.8021 42.4764 50.7789C41.4996 51.7557 40.1501 52.36 38.6597 52.36C37.1694 52.36 35.8199 51.7557 34.843 50.7789C33.8662 49.8021 33.262 48.4526 33.262 46.9622C33.262 45.4718 33.8662 44.1224 34.843 43.1455Z" fill="#E94921"/>
<path d="M18.1938 18.1964L18.4563 25.5078L28.5306 35.5822L34.7533 35.4788L34.7897 37.8032L28.0695 37.9149L27.5719 37.9232L27.2263 37.5777L16.4858 26.837L16.1484 26.0532L15.8694 18.2784L18.1938 18.1964Z" fill="#E94921"/>
<mask id="path-5-inside-1_44_2059" fill="white">
<rect x="39" y="17" width="7.94972" height="7.94972" rx="1" transform="rotate(-45 39 17)"/>
</mask>
<rect x="39" y="17" width="7.94972" height="7.94972" rx="1" transform="rotate(-45 39 17)" stroke="#252E79" stroke-width="4" mask="url(#path-5-inside-1_44_2059)"/>
</svg>
