<svg width="48" height="49" viewBox="0 0 48 49" fill="none" xmlns="http://www.w3.org/2000/svg">
<path d="M21.8493 0C27.8826 0 33.345 2.39672 37.299 6.27165C41.253 10.1466 43.6986 15.4997 43.6986 21.4123C43.6986 27.3249 41.253 32.6781 37.299 36.553C33.3449 40.4279 27.8826 42.8246 21.8493 42.8246C15.8159 42.8246 10.3536 40.4279 6.39964 36.553C2.44564 32.6781 0 27.3249 0 21.4123C0 15.4996 2.44564 10.1465 6.39964 6.27165C10.3536 2.39672 15.816 0 21.8493 0ZM35.2392 8.29021C31.8126 4.93216 27.0785 2.85504 21.8493 2.85504C16.6201 2.85504 11.886 4.93216 8.45937 8.29021C5.03279 11.6483 2.91328 16.2877 2.91328 21.4123C2.91328 26.5369 5.03279 31.1764 8.45937 34.5345C11.886 37.8925 16.6201 39.9696 21.8493 39.9696C27.0785 39.9696 31.8126 37.8925 35.2392 34.5345C38.6658 31.1764 40.7853 26.5369 40.7853 21.4123C40.7853 16.2877 38.6658 11.6483 35.2392 8.29021Z" fill="#E94921"/>
<path d="M36.531 35.2492C35.9623 34.6919 35.04 34.6919 34.4712 35.2492C33.9025 35.8066 33.9025 36.7104 34.4712 37.2678L45.5137 47.7166C46.0825 48.274 47.0047 48.274 47.5735 47.7166C48.1423 47.1592 48.1423 46.2554 47.5735 45.698L36.531 35.2492Z" fill="#E94921"/>
<path d="M22.404 8.2674C24.0128 8.2674 25.4694 8.90655 26.5239 9.93991C27.5783 10.9733 28.2306 12.4008 28.2306 13.9774C28.2306 15.554 27.5783 16.9815 26.5239 18.0149C25.4694 19.0482 24.0128 19.6874 22.404 19.6874C20.7953 19.6874 19.3386 19.0482 18.2842 18.0149C17.2297 16.9815 16.5775 15.554 16.5775 13.9774C16.5775 12.4008 17.2297 10.9733 18.2842 9.93991C19.3386 8.90655 20.7953 8.2674 22.404 8.2674ZM24.4641 11.9585C23.937 11.4419 23.2086 11.1224 22.404 11.1224C21.5995 11.1224 20.871 11.4419 20.3439 11.9585C19.8169 12.475 19.4908 13.1889 19.4908 13.9774C19.4908 14.7659 19.8169 15.4797 20.3439 15.9963C20.871 16.5128 21.5995 16.8323 22.404 16.8323C23.2086 16.8323 23.937 16.5128 24.4641 15.9963C24.9912 15.4797 25.3172 14.7659 25.3172 13.9774C25.3172 13.1889 24.9912 12.475 24.4641 11.9585Z" fill="#252E79"/>
<path d="M17.5788 19.9884H27.2289C28.3069 19.9884 29.286 20.4196 29.9948 21.1142C30.7036 21.8089 31.1436 22.7684 31.1436 23.8248V30.2633V31.6908H29.687H15.1207H13.6641V30.2633V23.8248C13.6641 22.7684 14.1041 21.8089 14.8129 21.1142C15.5217 20.4196 16.5008 19.9884 17.5788 19.9884ZM27.2289 22.8435H17.5788C17.305 22.8435 17.0549 22.9543 16.8727 23.1328C16.6906 23.3113 16.5774 23.5564 16.5774 23.8248V28.8358H28.2303V23.8248C28.2303 23.5564 28.1172 23.3113 27.9351 23.1328C27.7529 22.9543 27.5028 22.8435 27.2289 22.8435Z" fill="#252E79"/>
</svg>
