<svg width="16" height="16" viewBox="0 0 16 16" fill="none" xmlns="http://www.w3.org/2000/svg">
<path d="M5.04166 6.82237C5.14053 6.82202 5.23836 6.80219 5.32957 6.76402C5.42078 6.72585 5.50357 6.67009 5.57322 6.59992C5.64287 6.52974 5.698 6.44653 5.73549 6.35504C5.77297 6.26355 5.79206 6.16557 5.79166 6.0667C5.79206 5.96783 5.77297 5.86985 5.73549 5.77836C5.698 5.68687 5.64287 5.60366 5.57322 5.53349C5.50357 5.46331 5.42078 5.40755 5.32957 5.36938C5.23836 5.33121 5.14053 5.31138 5.04166 5.31104C4.94279 5.31138 4.84496 5.33121 4.75375 5.36938C4.66255 5.40755 4.57976 5.46331 4.51011 5.53349C4.44046 5.60366 4.38532 5.68687 4.34784 5.77836C4.31036 5.86985 4.29127 5.96783 4.29166 6.0667C4.29127 6.16557 4.31036 6.26355 4.34784 6.35504C4.38532 6.44653 4.44046 6.52974 4.51011 6.59992C4.57976 6.67009 4.66255 6.72585 4.75375 6.76402C4.84496 6.80219 4.94279 6.82202 5.04166 6.82237ZM8.04166 6.82237C8.14053 6.82202 8.23836 6.80219 8.32957 6.76402C8.42078 6.72585 8.50357 6.67009 8.57322 6.59992C8.64286 6.52974 8.698 6.44653 8.73549 6.35504C8.77297 6.26355 8.79206 6.16557 8.79166 6.0667C8.79206 5.96783 8.77297 5.86985 8.73549 5.77836C8.698 5.68687 8.64286 5.60366 8.57322 5.53349C8.50357 5.46331 8.42078 5.40755 8.32957 5.36938C8.23836 5.33121 8.14053 5.31138 8.04166 5.31104C7.94279 5.31138 7.84496 5.33121 7.75375 5.36938C7.66255 5.40755 7.57976 5.46331 7.51011 5.53349C7.44046 5.60366 7.38532 5.68687 7.34784 5.77836C7.31036 5.86985 7.29127 5.96783 7.29166 6.0667C7.29127 6.16557 7.31036 6.26355 7.34784 6.35504C7.38532 6.44653 7.44046 6.52974 7.51011 6.59992C7.57976 6.67009 7.66255 6.72585 7.75375 6.76402C7.84496 6.80219 7.94279 6.82202 8.04166 6.82237Z" fill="#252E79"/>
<path d="M12.3323 7.237C12.281 4.336 9.91332 2 6.99999 2C4.05432 2 1.66666 4.38767 1.66666 7.33333C1.66666 8.72333 2.19832 9.98933 3.06966 10.9383L2.66999 13.3417L5.04166 12.3233C6.08666 12.6707 7.07266 12.7577 7.99999 12.584" stroke="#252E79" stroke-width="1.5" stroke-linecap="round" stroke-linejoin="round"/>
<path d="M12.9206 13.31C12.3176 13.7592 11.5853 14.0013 10.8333 14C8.90031 14 7.33331 12.433 7.33331 10.5C7.33331 8.567 8.90031 7 10.8333 7C12.7663 7 14.3333 8.567 14.3333 10.5C14.3333 11.0333 14.214 11.5387 14.0006 11.991" stroke="#252E79" stroke-width="1.5" stroke-linecap="round" stroke-linejoin="round"/>
<path d="M14.0006 11.991L14.3332 14L12.9206 13.31" stroke="#252E79" stroke-width="1.5" stroke-linecap="round" stroke-linejoin="round"/>
<path d="M11.896 10.2666C11.8218 10.2664 11.7485 10.2515 11.68 10.2229C11.6116 10.1943 11.5495 10.1525 11.4973 10.0998C11.445 10.0472 11.4037 9.98482 11.3755 9.91621C11.3474 9.8476 11.3331 9.77412 11.3333 9.69997C11.3333 9.38697 11.585 9.1333 11.896 9.1333C12.2063 9.1333 12.4583 9.38697 12.4583 9.69997C12.4583 10.013 12.2067 10.2666 11.8957 10.2666H11.896ZM9.64598 10.2666C9.57183 10.2664 9.49845 10.2515 9.43005 10.2229C9.36164 10.1943 9.29954 10.1525 9.24729 10.0998C9.19504 10.0472 9.15367 9.98482 9.12553 9.91621C9.0974 9.8476 9.08305 9.77412 9.08332 9.69997C9.08332 9.38697 9.33532 9.1333 9.64598 9.1333C9.95632 9.1333 10.2083 9.38697 10.2083 9.69997C10.2083 10.013 9.95632 10.2666 9.64565 10.2666H9.64598Z" fill="#252E79"/>
</svg>
