<svg width="24" height="24" viewBox="0 0 24 24" fill="none" xmlns="http://www.w3.org/2000/svg">
<path d="M24 17.9999C24 18.7072 23.719 19.3854 23.219 19.8855C22.7189 20.3856 22.0406 20.6666 21.3333 20.6666H2.66667C1.95942 20.6666 1.28115 20.3856 0.781049 19.8855C0.280952 19.3854 0 18.7072 0 17.9999V5.99992C0 5.29267 0.280952 4.6144 0.781049 4.1143C1.28115 3.6142 1.95942 3.33325 2.66667 3.33325H21.3333C22.0406 3.33325 22.7189 3.6142 23.219 4.1143C23.719 4.6144 24 5.29267 24 5.99992V17.9999Z" fill="#DE2910"/>
<path d="M7.424 5.98473L7.91466 6.22206L8.30733 5.84473L8.23333 6.38473L8.71333 6.64206L8.17733 6.73806L8.08133 7.27406L7.824 6.79406L7.284 6.86806L7.66133 6.47539L7.424 5.98473ZM10.534 7.94539L10.2967 8.43539L10.674 8.82873L10.1347 8.75406L9.87733 9.23473L9.78133 8.69806L9.24466 8.60206L9.72533 8.34473L9.65066 7.80539L10.044 8.18273L10.534 7.94539ZM9.896 10.4647L10.0747 10.9794L10.6193 10.9907L10.1853 11.3194L10.3433 11.8414L9.896 11.5301L9.44866 11.8414L9.606 11.3194L9.172 10.9907L9.71666 10.9794L9.896 10.4647ZM7.424 12.6514L7.91466 12.8887L8.30733 12.5114L8.23333 13.0514L8.71333 13.3087L8.17733 13.4047L8.08133 13.9407L7.824 13.4607L7.284 13.5347L7.66133 13.1421L7.424 12.6514ZM4.66666 7.30073L5.286 9.08139L7.17 9.12006L5.668 10.2587L6.214 12.0627L4.66666 10.9861L3.11933 12.0627L3.66533 10.2587L2.16333 9.12006L4.04733 9.08139L4.66666 7.30073Z" fill="#FFDE02"/>
</svg>
