<svg width="52" height="52" viewBox="0 0 52 52" fill="none" xmlns="http://www.w3.org/2000/svg">
<g clip-path="url(#clip0_42_1389)">
<path d="M24.3529 0L48 8.49851V10.2473L24.3529 18.7458H23.6471L0 10.2473V8.49851L23.6471 0H24.3529ZM44.8611 9.37285L24 1.87557L3.13885 9.37285L24 16.8701L44.8611 9.37285Z" fill="#252E79"/>
<path fill-rule="evenodd" clip-rule="evenodd" d="M2.06821 34.6756V8.68115H0.0826416V35.852L0.0310059 35.994L0.0826416 36.0108V36.0826H0.303924L23.6781 43.6705H24.3218L28.432 42.3362C28.2716 41.7303 28.1539 41.1071 28.0822 40.47L24.9927 41.4729V17.8714H23.0071V41.4729L2.06821 34.6756ZM45.8967 26.9538C46.5905 27.2361 47.2544 27.5766 47.8824 27.9692V9.10068H45.8967V26.9538Z" fill="#252E79"/>
<path d="M11.1746 38.9279L12.3203 13.9891L12.3457 13.4367L12.871 13.1914L33.4454 3.58871L34.3218 5.2643L14.2728 14.6219L13.1524 39.0084L11.1746 38.9279Z" fill="#252E79"/>
<path d="M23.329 8.23405C23.3031 8.41215 23.2545 8.57988 23.1859 8.73682C22.9234 9.33732 22.3977 9.74392 21.7337 9.96253C21.1824 10.144 20.5274 10.1919 19.8701 10.1067C19.4635 10.054 19.0501 9.95067 18.6554 9.79712C15.7987 8.68552 15.2163 7.23217 15.7571 5.99533C16.0666 5.28739 16.7862 4.71306 17.6626 4.36478C18.4647 4.04605 19.4275 3.90169 20.3185 4.01719C22.1669 4.25689 23.7323 5.46622 23.329 8.23405L23.329 8.23405ZM21.3555 8.02705C21.3605 8.01547 21.3644 8.00154 21.3667 7.98529C21.5718 6.57712 20.881 5.97555 20.0548 5.86842C19.5141 5.79832 18.9248 5.88788 18.4305 6.08431C18.0105 6.2512 17.6888 6.47345 17.5875 6.7051C17.4547 7.00889 17.8937 7.48114 19.4078 8.07026C19.6441 8.16221 19.8912 8.22405 20.1337 8.25548C20.4921 8.30194 20.8259 8.28348 21.0822 8.19909C21.2257 8.15187 21.3267 8.09297 21.3555 8.02704L21.3555 8.02705Z" fill="#252E79"/>
<path d="M21.5219 11.9649C21.503 11.9072 21.4871 11.8458 21.4745 11.7808C21.0642 9.66884 22.3932 8.65888 24.1019 8.36345C25.0529 8.19904 26.1349 8.29144 27.0159 8.54916C28.0568 8.85364 28.8932 9.42596 29.1337 10.1595C29.4764 11.2049 28.7593 12.334 26.055 13.1231C25.8334 13.1878 25.6038 13.2403 25.3714 13.2804C24.6208 13.4102 23.8489 13.4057 23.2244 13.2662C22.3891 13.0797 21.7468 12.6509 21.5219 11.9649L21.5219 11.9649ZM23.4168 11.4197C23.4335 11.4346 23.5208 11.41 23.6743 11.4442C24.0492 11.528 24.5311 11.5274 25.0147 11.4438C25.1676 11.4174 25.3216 11.382 25.4733 11.3378C26.7915 10.9532 27.2601 10.7658 27.2412 10.7083C27.2079 10.6064 26.8824 10.4656 26.4341 10.3345C25.8259 10.1566 25.0911 10.0907 24.4586 10.2C23.8019 10.3136 23.2853 10.6773 23.4168 11.4197L23.4168 11.4197Z" fill="#252E79"/>
<path fill-rule="evenodd" clip-rule="evenodd" d="M41 49C46.5228 49 51 44.5228 51 39C51 33.4772 46.5228 29 41 29C35.4772 29 31 33.4772 31 39C31 44.5228 35.4772 49 41 49ZM41 47.3333C45.6024 47.3333 49.3333 43.6024 49.3333 39C49.3333 34.3976 45.6024 30.6667 41 30.6667C36.3976 30.6667 32.6667 34.3976 32.6667 39C32.6667 43.6024 36.3976 47.3333 41 47.3333Z" fill="#E94921"/>
<path d="M40.1875 42.3333C39.9791 42.3333 39.7708 42.25 39.6041 42.0833L36.6666 39.1458C36.3333 38.8125 36.3333 38.2917 36.6666 37.9583C37 37.625 37.5208 37.625 37.8541 37.9583L40.1875 40.2917L44.3541 36.125C44.6875 35.7917 45.2083 35.7917 45.5416 36.125C45.875 36.4583 45.875 36.9792 45.5416 37.3125L40.7916 42.0625C40.6041 42.25 40.3958 42.3333 40.1875 42.3333Z" fill="#E94921"/>
</g>
<defs>
<clipPath id="clip0_42_1389">
<rect width="52" height="52" fill="white"/>
</clipPath>
</defs>
</svg>
