<svg width="64" height="39" viewBox="0 0 64 39" fill="none" xmlns="http://www.w3.org/2000/svg">
<path d="M23.6605 30.1859C22.6612 30.1859 21.8558 30.9913 21.8558 31.9906C21.8558 32.9819 22.6612 33.7953 23.6605 33.7953C24.6518 33.7953 25.4572 32.9819 25.4572 31.9906C25.4572 30.9918 24.6518 30.1859 23.6605 30.1859ZM23.6605 30.1859C22.6612 30.1859 21.8558 30.9913 21.8558 31.9906C21.8558 32.9819 22.6612 33.7953 23.6605 33.7953C24.6518 33.7953 25.4572 32.9819 25.4572 31.9906C25.4572 30.9918 24.6518 30.1859 23.6605 30.1859ZM51.6084 30.1859C50.617 30.1859 49.8117 30.9913 49.8117 31.9906C49.8117 32.9819 50.617 33.7953 51.6084 33.7953C52.6077 33.7953 53.4131 32.9819 53.4131 31.9906C53.4131 30.9918 52.6071 30.1859 51.6084 30.1859ZM51.6084 30.1859C50.617 30.1859 49.8117 30.9913 49.8117 31.9906C49.8117 32.9819 50.617 33.7953 51.6084 33.7953C52.6077 33.7953 53.4131 32.9819 53.4131 31.9906C53.4131 30.9918 52.6071 30.1859 51.6084 30.1859ZM51.6084 30.1859C50.617 30.1859 49.8117 30.9913 49.8117 31.9906C49.8117 32.9819 50.617 33.7953 51.6084 33.7953C52.6077 33.7953 53.4131 32.9819 53.4131 31.9906C53.4131 30.9918 52.6071 30.1859 51.6084 30.1859ZM51.6084 30.1859C50.617 30.1859 49.8117 30.9913 49.8117 31.9906C49.8117 32.9819 50.617 33.7953 51.6084 33.7953C52.6077 33.7953 53.4131 32.9819 53.4131 31.9906C53.4131 30.9918 52.6071 30.1859 51.6084 30.1859ZM51.6084 30.1859C50.617 30.1859 49.8117 30.9913 49.8117 31.9906C49.8117 32.9819 50.617 33.7953 51.6084 33.7953C52.6077 33.7953 53.4131 32.9819 53.4131 31.9906C53.4131 30.9918 52.6071 30.1859 51.6084 30.1859ZM51.6084 30.1859C50.617 30.1859 49.8117 30.9913 49.8117 31.9906C49.8117 32.9819 50.617 33.7953 51.6084 33.7953C52.6077 33.7953 53.4131 32.9819 53.4131 31.9906C53.4131 30.9918 52.6071 30.1859 51.6084 30.1859ZM0 12.8068V15.1302H17.1237V12.8068H0ZM4.50744 7.40075V9.72414H23.0372V7.40075H4.50744ZM23.6605 30.1859C22.6612 30.1859 21.8558 30.9913 21.8558 31.9906C21.8558 32.9819 22.6612 33.7953 23.6605 33.7953C24.6518 33.7953 25.4572 32.9819 25.4572 31.9906C25.4572 30.9918 24.6518 30.1859 23.6605 30.1859ZM51.6084 30.1859C50.617 30.1859 49.8117 30.9913 49.8117 31.9906C49.8117 32.9819 50.617 33.7953 51.6084 33.7953C52.6077 33.7953 53.4131 32.9819 53.4131 31.9906C53.4131 30.9918 52.6071 30.1859 51.6084 30.1859ZM63.1014 24.9118V19.4284C63.1014 17.2443 61.6066 14.9903 61.4207 14.7196L57.1299 8.72482C56.1306 7.46217 54.5352 5.96007 52.6458 5.96007H44.3823C42.6936 5.96007 41.1602 7.54009 41.1602 9.28278V33.1526H45.389C45.9156 36.2273 48.5024 38.5587 51.6084 38.5587C54.7218 38.5587 57.3085 36.2273 57.8352 33.1526H60.7706C62.4592 33.1526 64 31.5652 64 29.8299V24.9118H63.1014ZM57.0531 12.6055L59.5159 16.0522C59.8179 16.5015 60.5539 17.7869 60.7319 18.9335H50.5784C50.2143 18.9335 49.6797 18.4069 49.6797 17.9342V13.6048C49.6797 13.0241 50.2143 12.6055 50.5784 12.6055H57.0531ZM51.6084 36.2347C49.409 36.2347 47.6123 34.3293 47.6123 31.9906C47.6123 29.6518 49.409 27.7465 51.6084 27.7465C53.8157 27.7465 55.6125 29.6518 55.6125 31.9906C55.6125 34.3299 53.8157 36.2347 51.6084 36.2347ZM61.6766 29.8299C61.6766 30.3258 61.1499 30.8292 60.7706 30.8292H57.8352C57.3085 27.7545 54.7218 25.4231 51.6084 25.4231C48.5029 25.4231 45.9162 27.7545 45.389 30.8292H43.4836V9.28278C43.4836 8.78682 44.0023 8.28346 44.3823 8.28346H52.6458C53.3892 8.28346 54.3572 8.9728 55.2712 10.1268L55.3872 10.2815H50.5778C48.8584 10.2815 47.3558 11.8382 47.3558 13.6042V17.9336C47.3558 19.6377 48.9204 21.2563 50.5778 21.2563H60.778V27.2352H61.6766V29.8299ZM35.9407 0.190552H4.50744V2.51394H10.1069V6.53338H12.4303V2.54466C12.6549 2.5293 12.9103 2.51394 13.1737 2.51394H35.9401C36.5595 2.51394 37.4889 3.13333 37.5509 3.41259V30.8292H29.8793C29.3527 27.7545 26.7659 25.4231 23.6605 25.4231C20.5471 25.4231 17.9604 27.7545 17.4337 30.8292H13.3289C12.957 30.8292 12.4303 30.3258 12.4303 29.8299V15.7729H10.1069V29.8299C10.1069 31.5726 11.6403 33.1526 13.3289 33.1526H17.4337C17.9604 36.2273 20.5471 38.5587 23.6605 38.5587C26.7659 38.5587 29.3527 36.2273 29.8793 33.1526H39.8748V3.41202C39.8748 1.54591 37.5281 0.190552 35.9407 0.190552ZM23.6605 36.2347C21.4531 36.2347 19.6564 34.3293 19.6564 31.9906C19.6564 29.6518 21.4531 27.7465 23.6605 27.7465C25.8679 27.7465 27.6566 29.6518 27.6566 31.9906C27.6566 34.3299 25.8679 36.2347 23.6605 36.2347Z" fill="#E94921"/>
<mask id="path-2-inside-1_44_2027" fill="white">
<rect x="27" y="5" width="7.94972" height="7.94972" rx="1"/>
</mask>
<rect x="27" y="5" width="7.94972" height="7.94972" rx="1" stroke="#252E79" stroke-width="4" mask="url(#path-2-inside-1_44_2027)"/>
</svg>
