<svg width="35" height="42" viewBox="0 0 35 42" fill="none" xmlns="http://www.w3.org/2000/svg">
<path d="M29.75 40.5H3.25C2.14543 40.5 1.25 39.6046 1.25 38.5V7.5M29.75 40.5V7.5M29.75 40.5L32.9142 37.3358C33.2893 36.9607 33.5 36.452 33.5 35.9216V1.5M29.75 7.5H1.25M29.75 7.5L29.4317 6.54501C29.1713 5.76396 29.4162 4.90317 30.0487 4.37611L33.5 1.5M1.25 7.5L4.41689 4.33311C4.75595 3.99405 4.80855 3.46282 4.54257 3.06386V3.06386C4.09693 2.39539 4.57613 1.5 5.37953 1.5H33.5" stroke="#E94921" stroke-width="2"/>
<path d="M13 35H25" stroke="#E94921" stroke-width="2" stroke-linecap="round" stroke-linejoin="round"/>
<path d="M13 31H25" stroke="#E94921" stroke-width="2" stroke-linecap="round" stroke-linejoin="round"/>
<path d="M13 27H25" stroke="#E94921" stroke-width="2" stroke-linecap="round" stroke-linejoin="round"/>
<path d="M18.0246 13.7352C18.0246 12.7778 18.8069 12 19.7643 12C20.7218 12 21.4996 12.778 21.5 13.7352C21.5 14.5039 20.9982 15.1574 20.3078 15.3876V16.902C20.3078 19.6314 18.1076 21.8547 15.4056 21.8547C12.7036 21.8547 10.5034 19.6314 10.5034 16.902V15.3093C9.90961 15.0331 9.5 14.4302 9.5 13.7352C9.5 12.7778 10.2778 12 11.2352 12C12.1926 12 12.975 12.7778 12.975 13.7352C12.975 14.4624 12.524 15.0885 11.8842 15.3462V16.902C11.8842 18.872 13.4629 20.4738 15.4054 20.4738C17.3431 20.4738 18.9266 18.872 18.9266 16.902V15.2588C18.3882 14.9643 18.0246 14.3888 18.0246 13.7352Z" fill="#E94921"/>
</svg>
