<svg width="45" height="58" viewBox="0 0 45 58" fill="none" xmlns="http://www.w3.org/2000/svg">
<path d="M43.0602 9.83994V53.8399C43.0576 54.6719 42.7259 55.469 42.1376 56.0573C41.5493 56.6456 40.7522 56.9773 39.9202 56.9799H4.33019C3.49822 56.9773 2.70108 56.6456 2.11278 56.0573C1.52449 55.469 1.19282 54.6719 1.19019 53.8399V9.83994C1.19018 9.00624 1.52068 8.20654 2.10926 7.61608C2.69784 7.02563 3.49649 6.69259 4.33019 6.68994H13.5602C13.5554 6.76987 13.5554 6.85001 13.5602 6.92994V9.99994C13.5602 10.2875 13.6168 10.5723 13.7269 10.838C13.8369 11.1037 13.9983 11.3451 14.2016 11.5485C14.405 11.7519 14.6464 11.9132 14.9121 12.0232C15.1778 12.1333 15.4626 12.1899 15.7502 12.1899H28.3302C28.6173 12.1899 28.9016 12.1332 29.1668 12.023C29.4319 11.9129 29.6727 11.7514 29.8752 11.5479C30.0778 11.3444 30.2382 11.1029 30.3471 10.8373C30.4561 10.5716 30.5115 10.2871 30.5102 9.99994V6.92994C30.515 6.85001 30.515 6.76987 30.5102 6.68994H39.9302C40.7622 6.69522 41.5582 7.02943 42.1447 7.6196C42.7311 8.20976 43.0602 9.00796 43.0602 9.83994V9.83994Z" stroke="#E94921" stroke-width="2" stroke-linecap="round" stroke-linejoin="round"/>
<path d="M39.4503 11.66V49.78C39.4503 50.2362 39.2691 50.6737 38.9465 50.9962C38.624 51.3188 38.1865 51.5 37.7303 51.5H11.5703L4.80029 44.73V11.66C4.81585 11.2143 5.00391 10.7921 5.3248 10.4824C5.64569 10.1727 6.07433 9.99973 6.52029 10H13.5203C13.5203 10.5808 13.751 11.1379 14.1617 11.5486C14.5724 11.9593 15.1295 12.19 15.7103 12.19H28.3303C28.6174 12.19 28.9017 12.1333 29.1669 12.0231C29.432 11.9129 29.6728 11.7515 29.8753 11.548C30.0779 11.3445 30.2383 11.103 30.3472 10.8373C30.4562 10.5717 30.5116 10.2871 30.5103 10H37.7303C38.1763 9.99973 38.6049 10.1727 38.9258 10.4824C39.2467 10.7921 39.4347 11.2143 39.4503 11.66V11.66Z" stroke="#E94921" stroke-width="2" stroke-linecap="round" stroke-linejoin="round"/>
<path d="M11.5703 44.73V51.5L4.80029 44.73H11.5703Z" stroke="#E94921" stroke-width="2" stroke-linecap="round" stroke-linejoin="round"/>
<path d="M11.5703 51.5L4.80029 44.73" stroke="#E94921" stroke-width="2" stroke-linecap="round" stroke-linejoin="round"/>
<path d="M9 17H35" stroke="#E94921" stroke-width="2" stroke-linecap="round" stroke-linejoin="round"/>
<path d="M9 23H35" stroke="#E94921" stroke-width="2" stroke-linecap="round" stroke-linejoin="round"/>
<path d="M9 29H35" stroke="#E94921" stroke-width="2" stroke-linecap="round" stroke-linejoin="round"/>
<path d="M9 34H35" stroke="#E94921" stroke-width="2" stroke-linecap="round" stroke-linejoin="round"/>
<path d="M9.05029 39.0601H35.4903" stroke="#E94921" stroke-width="2" stroke-linecap="round" stroke-linejoin="round"/>
<path d="M16.4402 44.96H35.4902" stroke="#E94921" stroke-width="2" stroke-linecap="round" stroke-linejoin="round"/>
<path d="M30.5102 6.92999V9.99999C30.5116 10.2871 30.4561 10.5717 30.3472 10.8373C30.2382 11.103 30.0778 11.3445 29.8753 11.5479C29.6727 11.7514 29.4319 11.9129 29.1668 12.0231C28.9017 12.1333 28.6174 12.19 28.3302 12.19H15.7402C15.1594 12.19 14.6024 11.9593 14.1917 11.5486C13.781 11.1378 13.5502 10.5808 13.5502 9.99999V6.92999C13.5454 6.85006 13.5454 6.76992 13.5502 6.68999C13.6 6.14527 13.8508 5.63861 14.2539 5.26884C14.6569 4.89907 15.1833 4.6927 15.7302 4.68999H17.8602C17.9826 3.67274 18.4735 2.73559 19.24 2.05575C20.0066 1.3759 20.9957 1.00049 22.0202 1.00049C23.0448 1.00049 24.0339 1.3759 24.8004 2.05575C25.567 2.73559 26.0578 3.67274 26.1802 4.68999H28.3202C28.8661 4.69292 29.3913 4.89963 29.7927 5.2696C30.1941 5.63957 30.4429 6.14613 30.4902 6.68999C30.5017 6.76951 30.5084 6.84966 30.5102 6.92999Z" stroke="#E94921" stroke-width="2" stroke-linecap="round" stroke-linejoin="round"/>
<path d="M21.4702 4.42993H22.6002" stroke="#E94921" stroke-width="2" stroke-linecap="round" stroke-linejoin="round"/>
</svg>
