<svg width="24" height="17" viewBox="0 0 24 17" fill="none" xmlns="http://www.w3.org/2000/svg">
<path fill-rule="evenodd" clip-rule="evenodd" d="M7.41998 16.42C7.65998 16.66 7.95998 16.78 8.25998 16.78C8.55997 16.78 8.88996 16.66 9.12996 16.42C9.60996 15.94 9.60996 15.19 9.12996 14.71L4.17995 9.75997H21.82C22.48 9.75997 23.02 9.21997 23.02 8.55997C23.02 7.89997 22.48 7.35997 21.82 7.35997H4.23999L9.12996 2.46998C9.60996 1.98998 9.60996 1.23999 9.12996 0.759994C8.64996 0.279994 7.89998 0.279994 7.41998 0.759994L0.459976 7.71998C-0.0200244 8.19998 -0.0200244 8.95 0.459976 9.43L7.41998 16.42Z" fill="#5843B5"/>
</svg>
