<svg width="49" height="37" viewBox="0 0 49 37" fill="none" xmlns="http://www.w3.org/2000/svg">
<path d="M43.8253 3.144C46.572 6.06133 48.0467 9.33333 48.0467 14.6373C48.0467 23.9707 41.4947 32.336 31.9667 36.472L29.5853 32.7973C38.4787 27.9867 40.2173 21.744 40.9107 17.808C39.4787 18.5493 37.604 18.808 35.7667 18.6373C30.956 18.192 27.164 14.2427 27.164 9.33333C27.164 6.85798 28.1473 4.48401 29.8977 2.73367C31.648 0.983331 34.022 0 36.4973 0C39.3587 0 42.0947 1.30667 43.8253 3.144ZM17.1587 3.144C19.9053 6.06133 21.38 9.33333 21.38 14.6373C21.38 23.9707 14.828 32.336 5.3 36.472L2.91867 32.7973C11.812 27.9867 13.5507 21.744 14.244 17.808C12.812 18.5493 10.9373 18.808 9.1 18.6373C4.28933 18.192 0.5 14.2427 0.5 9.33333C0.5 6.85798 1.48333 4.48401 3.23367 2.73367C4.98401 0.983331 7.35798 0 9.83333 0C12.6947 0 15.4307 1.30667 17.1613 3.144H17.1587Z" fill="#7869BB"/>
</svg>
