<svg width="11" height="10" viewBox="0 0 11 10" fill="none" xmlns="http://www.w3.org/2000/svg">
<path d="M10.6333 3.52128L7.49408 3.06505L6.09076 0.220085C6.05243 0.142191 5.98937 0.0791345 5.91148 0.0408059C5.71613 -0.0556336 5.47874 0.0247327 5.38106 0.220085L3.97774 3.06505L0.838508 3.52128C0.75196 3.53365 0.67283 3.57445 0.612246 3.63627C0.539004 3.71155 0.498644 3.81283 0.500035 3.91785C0.501426 4.02287 0.544454 4.12305 0.619665 4.19636L2.89094 6.41076L2.35434 9.53763C2.34176 9.61037 2.34981 9.68517 2.37758 9.75357C2.40534 9.82197 2.45172 9.88121 2.51145 9.92459C2.57118 9.96797 2.64186 9.99375 2.71549 9.999C2.78913 10.0042 2.86276 9.98876 2.92803 9.9543L5.73591 8.47803L8.54379 9.9543C8.62044 9.9951 8.70946 10.0087 8.79478 9.99386C9.00991 9.95677 9.15457 9.75276 9.11748 9.53763L8.58088 6.41076L10.8522 4.19636C10.914 4.13578 10.9548 4.05665 10.9671 3.9701C11.0005 3.75373 10.8497 3.55343 10.6333 3.52128Z" fill="#E94921"/>
</svg>
