<svg width="30" height="30" viewBox="0 0 30 30" fill="none" xmlns="http://www.w3.org/2000/svg">
<path fill-rule="evenodd" clip-rule="evenodd" d="M15 30C23.2843 30 30 23.2843 30 15C30 6.71573 23.2843 0 15 0C6.71573 0 0 6.71573 0 15C0 23.2843 6.71573 30 15 30ZM15 27.5C21.9036 27.5 27.5 21.9036 27.5 15C27.5 8.09644 21.9036 2.5 15 2.5C8.09644 2.5 2.5 8.09644 2.5 15C2.5 21.9036 8.09644 27.5 15 27.5Z" fill="#E94921"/>
<path d="M13.7813 20C13.4688 20 13.1562 19.875 12.9062 19.625L8.5 15.2188C8 14.7188 8 13.9375 8.5 13.4375C9 12.9375 9.78123 12.9375 10.2812 13.4375L13.7813 16.9375L20.0313 10.6875C20.5313 10.1875 21.3125 10.1875 21.8125 10.6875C22.3125 11.1875 22.3125 11.9687 21.8125 12.4687L14.6875 19.5938C14.4063 19.875 14.0938 20 13.7813 20Z" fill="#E94921"/>
</svg>
