<svg width="24" height="18" viewBox="0 0 24 18" fill="none" xmlns="http://www.w3.org/2000/svg">
<path fill-rule="evenodd" clip-rule="evenodd" d="M7.91998 16.9199C8.15998 17.1599 8.45998 17.28 8.75998 17.28C9.05997 17.28 9.38996 17.1599 9.62996 16.9199C10.11 16.4399 10.11 15.69 9.62996 15.21L4.67995 10.2599H22.32C22.98 10.2599 23.52 9.71994 23.52 9.05994C23.52 8.39994 22.98 7.85994 22.32 7.85994H4.73999L9.62996 2.96995C10.11 2.48995 10.11 1.73996 9.62996 1.25996C9.14996 0.779963 8.39998 0.779963 7.91998 1.25996L0.959976 8.21995C0.479976 8.69995 0.479976 9.44997 0.959976 9.92997L7.91998 16.9199Z" fill="white"/>
</svg>
