<svg width="220" height="60" viewBox="0 0 220 60" fill="none" xmlns="http://www.w3.org/2000/svg">
<path d="M26 28.0142L49 14.8713M26 28.0142V56.2713M26 28.0142L3 14.8713" stroke="#252E79" stroke-width="6" stroke-linecap="round"/>
<path d="M39.1428 8.95703L26 1.72846L12.8571 8.95703" stroke="#E94921" stroke-width="3" stroke-linecap="round"/>
<path d="M49 24.7285V43.1285L35.8571 51.6714" stroke="#E94921" stroke-width="3" stroke-linecap="round"/>
<path d="M3.00003 24.7285V43.1285L16.1429 51.6714" stroke="#E94921" stroke-width="3" stroke-linecap="round"/>
<path d="M64.4773 18.6364H70.642L74.6193 26.9091H74.7784L78.7557 18.6364H84.9205L77.4432 32.5966V39H71.9545V32.5966L64.4773 18.6364ZM86.392 39V23.7273H91.8807V39H86.392ZM89.1364 22.1364C88.3939 22.1364 87.7576 21.8911 87.2273 21.4006C86.697 20.91 86.4318 20.3201 86.4318 19.6307C86.4318 18.9413 86.697 18.3513 87.2273 17.8608C87.7576 17.3703 88.3939 17.125 89.1364 17.125C89.8854 17.125 90.5218 17.3703 91.0455 17.8608C91.5758 18.3513 91.8409 18.9413 91.8409 19.6307C91.8409 20.3201 91.5758 20.91 91.0455 21.4006C90.5218 21.8911 89.8854 22.1364 89.1364 22.1364ZM94.6772 39V23.7273H99.8874V26.6307H100.047C100.365 25.6761 100.908 24.9205 101.677 24.3636C102.446 23.8068 103.361 23.5284 104.422 23.5284C105.495 23.5284 106.42 23.8134 107.196 24.3835C107.971 24.947 108.439 25.696 108.598 26.6307H108.757C109.015 25.696 109.565 24.947 110.407 24.3835C111.249 23.8134 112.237 23.5284 113.37 23.5284C114.835 23.5284 116.022 23.9991 116.93 24.9403C117.845 25.8816 118.302 27.1345 118.302 28.6989V39H112.814V30.0909C112.814 29.4214 112.645 28.8977 112.306 28.5199C111.968 28.1354 111.514 27.9432 110.944 27.9432C110.381 27.9432 109.933 28.1354 109.602 28.5199C109.277 28.8977 109.115 29.4214 109.115 30.0909V39H103.865V30.0909C103.865 29.4214 103.696 28.8977 103.358 28.5199C103.02 28.1354 102.565 27.9432 101.995 27.9432C101.618 27.9432 101.293 28.0294 101.021 28.2017C100.749 28.3741 100.537 28.6226 100.385 28.9474C100.239 29.2656 100.166 29.6468 100.166 30.0909V39H94.6772ZM128.367 39.2784C126.71 39.2784 125.291 38.9503 124.112 38.294C122.932 37.6312 122.027 36.7098 121.397 35.5298C120.767 34.3433 120.452 32.9678 120.452 31.4034C120.452 29.839 120.767 28.4669 121.397 27.2869C122.027 26.1004 122.932 25.179 124.112 24.5227C125.291 23.8598 126.71 23.5284 128.367 23.5284C130.024 23.5284 131.443 23.8598 132.623 24.5227C133.803 25.179 134.708 26.1004 135.337 27.2869C135.967 28.4669 136.282 29.839 136.282 31.4034C136.282 32.9678 135.967 34.3433 135.337 35.5298C134.708 36.7098 133.803 37.6312 132.623 38.294C131.443 38.9503 130.024 39.2784 128.367 39.2784ZM128.407 35.2216C128.871 35.2216 129.272 35.0658 129.61 34.7543C129.948 34.4427 130.21 33.9986 130.396 33.4219C130.581 32.8452 130.674 32.1591 130.674 31.3636C130.674 30.5616 130.581 29.8755 130.396 29.3054C130.21 28.7287 129.948 28.2846 129.61 27.973C129.272 27.6615 128.871 27.5057 128.407 27.5057C127.916 27.5057 127.496 27.6615 127.144 27.973C126.793 28.2846 126.524 28.7287 126.339 29.3054C126.153 29.8755 126.06 30.5616 126.06 31.3636C126.06 32.1591 126.153 32.8452 126.339 33.4219C126.524 33.9986 126.793 34.4427 127.144 34.7543C127.496 35.0658 127.916 35.2216 128.407 35.2216Z" fill="#252E79"/>
<path d="M156.556 25.5071H152.837C152.731 24.8973 152.536 24.357 152.251 23.8864C151.966 23.4091 151.611 23.0047 151.187 22.6733C150.763 22.3419 150.279 22.0933 149.735 21.9276C149.198 21.7552 148.618 21.669 147.995 21.669C146.888 21.669 145.907 21.9474 145.052 22.5043C144.197 23.0544 143.527 23.8632 143.043 24.9304C142.559 25.991 142.317 27.2869 142.317 28.8182C142.317 30.3759 142.559 31.6884 143.043 32.7557C143.534 33.8163 144.203 34.6184 145.052 35.1619C145.907 35.6989 146.885 35.9673 147.985 35.9673C148.595 35.9673 149.165 35.8878 149.695 35.7287C150.232 35.563 150.713 35.321 151.137 35.0028C151.568 34.6847 151.929 34.2936 152.221 33.8295C152.519 33.3655 152.725 32.8352 152.837 32.2386L156.556 32.2585C156.417 33.2263 156.115 34.1345 155.651 34.983C155.194 35.8314 154.594 36.5805 153.852 37.2301C153.109 37.8731 152.241 38.3769 151.246 38.7415C150.252 39.0994 149.148 39.2784 147.935 39.2784C146.146 39.2784 144.548 38.8641 143.143 38.0355C141.737 37.2069 140.63 36.0104 139.822 34.446C139.013 32.8816 138.609 31.0057 138.609 28.8182C138.609 26.6241 139.016 24.7481 139.832 23.1903C140.647 21.6259 141.757 20.4295 143.163 19.6009C144.568 18.7723 146.159 18.358 147.935 18.358C149.069 18.358 150.123 18.517 151.097 18.8352C152.072 19.1534 152.94 19.6207 153.702 20.2372C154.465 20.8471 155.091 21.5961 155.582 22.4844C156.079 23.366 156.404 24.3736 156.556 25.5071ZM164.17 39.3082C163.202 39.3082 162.331 39.1359 161.555 38.7912C160.786 38.4399 160.176 37.9228 159.725 37.2401C159.281 36.5573 159.059 35.7154 159.059 34.7145C159.059 33.8527 159.218 33.1402 159.537 32.5767C159.855 32.0133 160.289 31.5625 160.839 31.2244C161.389 30.8864 162.009 30.6312 162.699 30.4588C163.395 30.2798 164.114 30.1506 164.856 30.071C165.751 29.9782 166.477 29.8954 167.034 29.8224C167.591 29.7429 167.995 29.6236 168.247 29.4645C168.505 29.2988 168.635 29.0436 168.635 28.6989V28.6392C168.635 27.8902 168.413 27.3101 167.968 26.8991C167.524 26.4882 166.885 26.2827 166.049 26.2827C165.168 26.2827 164.468 26.4749 163.951 26.8594C163.441 27.2438 163.096 27.6979 162.917 28.2216L159.556 27.7443C159.822 26.8163 160.259 26.0407 160.869 25.4176C161.479 24.7879 162.225 24.3172 163.106 24.0057C163.988 23.6875 164.962 23.5284 166.029 23.5284C166.765 23.5284 167.498 23.6146 168.227 23.7869C168.956 23.9593 169.622 24.2443 170.225 24.642C170.829 25.0331 171.313 25.5668 171.677 26.2429C172.048 26.919 172.234 27.7642 172.234 28.7784V39H168.774V36.902H168.654C168.436 37.3262 168.127 37.724 167.73 38.0952C167.339 38.4598 166.845 38.7547 166.248 38.9801C165.658 39.1989 164.966 39.3082 164.17 39.3082ZM165.105 36.6634C165.827 36.6634 166.454 36.5208 166.984 36.2358C167.514 35.9441 167.922 35.5597 168.207 35.0824C168.499 34.6051 168.645 34.0848 168.645 33.5213V31.7216C168.532 31.8144 168.34 31.9006 168.068 31.9801C167.803 32.0597 167.504 32.1293 167.173 32.1889C166.842 32.2486 166.513 32.3016 166.189 32.348C165.864 32.3944 165.582 32.4342 165.343 32.4673C164.806 32.5402 164.326 32.6596 163.902 32.8253C163.477 32.991 163.143 33.223 162.897 33.5213C162.652 33.813 162.529 34.1908 162.529 34.6548C162.529 35.3177 162.771 35.8182 163.255 36.1562C163.739 36.4943 164.356 36.6634 165.105 36.6634ZM175.853 39V23.7273H179.343V26.2727H179.502C179.781 25.3911 180.258 24.7116 180.934 24.2344C181.617 23.7505 182.396 23.5085 183.271 23.5085C183.47 23.5085 183.692 23.5185 183.937 23.5384C184.189 23.5516 184.398 23.5748 184.564 23.608V26.919C184.411 26.866 184.169 26.8196 183.838 26.7798C183.513 26.7334 183.198 26.7102 182.893 26.7102C182.237 26.7102 181.647 26.8527 181.123 27.1378C180.606 27.4162 180.199 27.804 179.9 28.3011C179.602 28.7983 179.453 29.3717 179.453 30.0213V39H175.853ZM192.968 45.0455C191.675 45.0455 190.565 44.8698 189.637 44.5185C188.709 44.1738 187.963 43.7098 187.4 43.1264C186.836 42.5431 186.445 41.8968 186.227 41.1875L189.468 40.402C189.614 40.7003 189.826 40.9953 190.104 41.2869C190.383 41.5852 190.757 41.8305 191.228 42.0227C191.705 42.2216 192.305 42.321 193.028 42.321C194.049 42.321 194.894 42.0724 195.563 41.5753C196.233 41.0848 196.567 40.276 196.567 39.1491V36.2557H196.388C196.203 36.6269 195.931 37.008 195.573 37.3991C195.222 37.7902 194.754 38.1184 194.171 38.3835C193.594 38.6487 192.869 38.7812 191.994 38.7812C190.82 38.7812 189.756 38.5062 188.802 37.956C187.854 37.3991 187.098 36.5705 186.535 35.4702C185.978 34.3632 185.7 32.9777 185.7 31.3139C185.7 29.6368 185.978 28.2216 186.535 27.0682C187.098 25.9081 187.857 25.0298 188.812 24.4332C189.766 23.83 190.83 23.5284 192.004 23.5284C192.898 23.5284 193.634 23.6809 194.211 23.9858C194.794 24.2841 195.258 24.6454 195.603 25.0696C195.948 25.4872 196.21 25.8816 196.388 26.2528H196.587V23.7273H200.137V39.2486C200.137 40.5545 199.826 41.6349 199.202 42.4901C198.579 43.3452 197.728 43.9848 196.647 44.4091C195.567 44.8333 194.34 45.0455 192.968 45.0455ZM192.998 35.9574C193.76 35.9574 194.41 35.7718 194.947 35.4006C195.484 35.0294 195.891 34.4957 196.17 33.7997C196.448 33.1037 196.587 32.2685 196.587 31.294C196.587 30.3329 196.448 29.491 196.17 28.7685C195.898 28.0459 195.494 27.4858 194.957 27.0881C194.426 26.6837 193.773 26.4815 192.998 26.4815C192.196 26.4815 191.526 26.6903 190.989 27.108C190.452 27.5256 190.048 28.099 189.776 28.8281C189.504 29.5507 189.369 30.3726 189.369 31.294C189.369 32.2287 189.504 33.0473 189.776 33.75C190.055 34.446 190.462 34.9896 190.999 35.3807C191.543 35.7652 192.209 35.9574 192.998 35.9574ZM210.488 39.2983C208.996 39.2983 207.704 38.9702 206.61 38.3139C205.516 37.6577 204.668 36.7396 204.065 35.5597C203.468 34.3797 203.17 33.0009 203.17 31.4233C203.17 29.8456 203.468 28.4635 204.065 27.277C204.668 26.0904 205.516 25.169 206.61 24.5128C207.704 23.8565 208.996 23.5284 210.488 23.5284C211.979 23.5284 213.272 23.8565 214.366 24.5128C215.46 25.169 216.305 26.0904 216.901 27.277C217.504 28.4635 217.806 29.8456 217.806 31.4233C217.806 33.0009 217.504 34.3797 216.901 35.5597C216.305 36.7396 215.46 37.6577 214.366 38.3139C213.272 38.9702 211.979 39.2983 210.488 39.2983ZM210.508 36.4148C211.317 36.4148 211.993 36.1927 212.536 35.7486C213.08 35.2978 213.484 34.6946 213.749 33.9389C214.021 33.1832 214.157 32.3414 214.157 31.4134C214.157 30.4787 214.021 29.6335 213.749 28.8778C213.484 28.1155 213.08 27.509 212.536 27.0582C211.993 26.6075 211.317 26.3821 210.508 26.3821C209.679 26.3821 208.99 26.6075 208.44 27.0582C207.896 27.509 207.488 28.1155 207.217 28.8778C206.951 29.6335 206.819 30.4787 206.819 31.4134C206.819 32.3414 206.951 33.1832 207.217 33.9389C207.488 34.6946 207.896 35.2978 208.44 35.7486C208.99 36.1927 209.679 36.4148 210.508 36.4148Z" fill="#E94921"/>
</svg>
