<svg width="32" height="24" viewBox="0 0 32 24" fill="none" xmlns="http://www.w3.org/2000/svg">
<path d="M32 19.9999C32 20.9429 31.6254 21.8473 30.9586 22.514C30.2918 23.1808 29.3874 23.5554 28.4444 23.5554H3.55556C2.61256 23.5554 1.70819 23.1808 1.0414 22.514C0.374602 21.8473 0 20.9429 0 19.9999V16.4443H32V19.9999Z" fill="#CE2028"/>
<path d="M0 7.55566H32V16.4446H0V7.55566Z" fill="#22408C"/>
<path d="M28.4444 0.444336H3.55556C2.61256 0.444336 1.70819 0.818938 1.0414 1.48573C0.374602 2.15253 0 3.0569 0 3.99989L0 7.55545H32V3.99989C32 3.0569 31.6254 2.15253 30.9586 1.48573C30.2918 0.818938 29.3874 0.444336 28.4444 0.444336V0.444336Z" fill="#EEEEEE"/>
</svg>
