<svg width="19" height="20" viewBox="0 0 19 20" fill="none" xmlns="http://www.w3.org/2000/svg">
<path d="M14.7994 8.94902L15.4336 9.25577L15.9411 8.76807L15.8454 9.46601L16.4658 9.79862L15.7731 9.9227L15.649 10.6155L15.3164 9.99508L14.6184 10.0907L15.1061 9.5832L14.7994 8.94902ZM18.8191 11.4832L18.5123 12.1165L19 12.6249L18.3029 12.5284L17.9703 13.1496L17.8462 12.456L17.1526 12.3319L17.7739 11.9993L17.6773 11.3022L18.1857 11.7899L18.8191 11.4832ZM17.9944 14.7394L18.2254 15.4046L18.9293 15.4192L18.3684 15.844L18.5726 16.5187L17.9944 16.1163L17.4163 16.5187L17.6196 15.844L17.0587 15.4192L17.7627 15.4046L17.9944 14.7394ZM14.7994 17.5657L15.4336 17.8724L15.9411 17.3847L15.8454 18.0827L16.4658 18.4153L15.7731 18.5393L15.649 19.2321L15.3164 18.6117L14.6184 18.7074L15.1061 18.1998L14.7994 17.5657ZM11.2355 10.6499L12.036 12.9514L14.4711 13.0014L12.5298 14.4731L13.2355 16.8048L11.2355 15.4132L9.23563 16.8048L9.94133 14.4731L8 13.0014L10.4351 12.9514L11.2355 10.6499Z" fill="#FFDE02"/>
</svg>
